<svg xmlns="http://www.w3.org/2000/svg" x="0" y="0" viewBox="0 0 209.103 157.001" enable-background="new 0 0 209.103 157.001" width="209.103" height="157.001"><title>30</title><g class="nc-icon-wrapper"><g id="_x33_0"><path d="M61.25 64.641c-.323-2.424-.718-4.307-1.863-6.49-1.645-3.137-5.755-4.104-8.984-3.024-.224-.002-.448-.005-.675.008.362-3.653-3.087-7.565-7.022-6.162-10.086 3.595-19.08 10.251-23.352 20.346-1.386 3.275 2.596 7.457 5.443 4.2a61.341 61.341 0 0 1 3.568-3.736c0 2.034.723 4.009 2.543 5.82 2.854 2.841 6.516 2.955 10.081 1.585 2.036-.782 3.861-1.986 5.614-3.261a58.414 58.414 0 0 0 2.919-2.331c.243-.147.425-.284.608-.422 4.835 2.175 11.971-.156 11.12-6.533z" fill="#E0DFE6"/><path d="M207.872 101.077c-.402-12.308-1.065-24.595-1.803-36.887-.739-12.307-1.004-25.292-4.152-37.265-.348-1.325-2.546-1.455-2.814 0-2.987 16.228-1.709 33.59-1.863 50.033-.08 8.514-.09 17.024-.086 25.539.002 4.257-.003 8.514-.017 12.771v.172c-.206-1.116-.357-2.238-.52-3.387-.421-2.958-4.487-5.04-7.165-4.068-5.216 1.894-11.089 1.175-16.458 2.421-.831.193-1.431.821-1.741 1.579-.359-1.873-1.777-3.533-4.472-3.757-5.924-.494-11.763.942-16.69 3.842-.692-2.324-2.571-4.227-5.676-4.183-1.982.029-3.974.044-5.967.057-.885-.791-2.092-1.281-3.633-1.217-4.547.187-9.064.771-13.585 1.355-8.419.126-16.844.44-25.164 1.331-4.908-.074-9.811-.043-14.615.823a2.588 2.588 0 0 0-.729.258 78.157 78.157 0 0 1-.23-2.848c-.377-6.632-.861-13.256-1.359-19.88a1071.252 1071.252 0 0 0-4.065-42.588c-.223-1.936-3.047-2.046-3.101 0-.322 12.307-.598 24.597-.682 36.908-.039 5.68-.112 11.359-.155 17.039-.032 4.183 1.091 11.009.436 15.977-1.163-2.422-2.499-4.843-4.369-6.498-1.8-1.592-5.068-1.544-6.442.458-3.323-3.097-7.466-5.157-11.759-5.248-8.891-.189-24.067 6.636-22.791 17.394.147 1.239 1.636 2.165 2.647 1.096 4.542-4.799 12.914-9.776 19.786-7.291 6.314 2.283 5.493 10.84 9.272 15.497a4.515 4.515 0 0 0 1.63 1.266c-1.137-.311-2.417-.137-3.713.819-6.136 4.529-9.846 11.636-18.54 8.551-2.01-.713-8.142-6.138-10.119-3.543-4.966 6.516 6.352 14.348 11.601 15.445a17.84 17.84 0 0 0 3.493.367c1.07.19 2.131.308 3.157.33 8.438.184 17.424-4.359 21.242-12.066.681-1.374.722-2.838.336-4.174 12.751-.127 25.537-.885 38.294-.943 7.261-.033 14.536.41 21.796.609 5.197.142 10.733.997 15.592-.753-2.502 10.053 8.347 19.097 17.414 20.363 11.889 1.66 23.246-6.257 27.945-16.951a33.95 33.95 0 0 0 3.609-.08c5.782 2.024 12.578-1.323 15.305-7.338 4.021-8.866 1.228-21.9.92-31.335zm-69.282 24.439c-23.368 2.576-49.592-6.152-71.564 3.795a4.96 4.96 0 0 0 .44-.983c.972.065 1.955-.072 2.851-.45 1.316-.555 2.282-1.44 2.917-2.497 1.947.843 4.376.476 5.956-1.965.835-1.29 1.319-2.691 1.589-4.149 1.223 2.024 3.347 3.259 5.664 3.252 1.162-.004 2.371-.339 3.388-.907.702-.392 1.242-1.03 1.937-1.418.586-.328.907-.181 1.788.138 1.022.369 1.953.209 2.703-.261 3.672.323 7.372.406 10.974.441 6.108.058 12.632.031 18.939-.754 5.09.153 10.17.268 15.21.43a25.548 25.548 0 0 0-2.792 5.328zm56.228 1.534c-3.048-1.99-6.119-.801-7.841 1.515-2.381-1.86-5.822-2.339-8.282-.401-1.967-.245-4.082.493-5.699 2.775-4.229 5.969-8.16 10.531-15.468 12.071-4.62-1.48-7.456-5.202-11.09-8.718 2.975-2.804 1.564-7.094-1.702-8.617 4.901-6.192 12.756-9.853 20.774-8.046 3.16.712 5.164-1.203 5.69-3.486.199.528.562.988 1.143 1.261 4.07 1.91 8.393 2.227 12.687 2.903a48.6 48.6 0 0 0 .325 2.806c.834 5.858 8.471 5.628 11.429 1.837-.308 2.656-.882 4.808-1.966 4.1z" fill="#E0DFE6"/><path d="M161.92 61.014a24.666 24.666 0 0 0-1.085-14.049c-1.627-4.25-7.751-2.655-6.859 1.891 1.973 10.062-4.981 17.435-14.054 20.441-5.006 1.658-4.452 9.821 1.297 9.584.138-.006.272-.022.409-.03-2.218 1.119-4.74 1.872-7.682 2.126-10.083.872-17.435-4.997-25.083-10.449-1.391-.991-2.858.641-2.612 2.008.361 2.01 1.07 3.851 2.002 5.556-1.141-.539-2.58.858-1.795 1.988 6.467 9.309 17.085 17.743 29.054 17.037 11.497-.679 22.659-9.71 26.75-20.272a4.95 4.95 0 0 0 .299-2.521c1.206-2.263 2.055-4.68 2.425-7.214.38-2.611-1.088-4.952-3.066-6.096z" fill="#E0DFE6"/><path d="M21.056 122.815c-.998-3.084-4.159-5.125-7.404-4.204-1.176.334-2.3.869-3.508 1.089-.03-.03-1.035.036-1.047.036-.72.015-1.414.08-2.134.139-3.647.296-4.948 4.029-2.805 6.772 2.704 3.462 8.601 4.733 12.694 3.572 3.027-.859 5.21-4.294 4.204-7.404z" fill="#E0DFE6"/><path d="M20.36 130.513c-1.947.348-3.946.399-5.919.299-1.79-.091-3.597-.455-5.226.461-.585.329-.858 1.062-.692 1.699.558 2.138 2.755 3.322 4.602 4.256 2.311 1.169 4.749 2.069 7.235 2.782 3.087.885 6.234-1.587 6.234-4.749 0-3.368-3.124-5.305-6.234-4.748z" fill="#E0DFE6"/><path d="M10.113 131.62c-3.378 0-6.282-2.513-6.733-5.932C1.508 111.488 0 94.001 0 88.989c0-51.466 53.973-57.528 77.02-60.116 1.185-.145 2.252.72 2.387 1.905a2.157 2.157 0 0 1-1.905 2.385c-15.348 1.725-32.978 4.532-47.365 12.284C12.764 54.809 4.318 69.052 4.318 88.989c0 4.341 1.404 21.426 3.343 36.133.174 1.32 1.325 2.248 2.65 2.172 2.281-.181 4.738-.335 7.464-.47 1.366-15.726 14.649-23.939 27.607-23.939 10.439 0 17.849 8.05 21.504 23.312 14.732-1.871 26.983-2.607 43.034-2.607 8.676 0 17.477.219 25.994.433 5.862-11.083 17.549-17.046 25.916-17.046 6.604 0 17.682 5.376 22.144 20.034a85.072 85.072 0 0 1 4.923-.127c1.672 0 3.344.034 5.016.068.765.016 1.53.031 2.295.044-1.855-33.287-2.35-66.931-2.83-99.491-.111-7.564-.223-15.133-.35-22.712-10.062.083-20.333-.072-30.268-.225-7.975-.124-16.222-.25-24.311-.25-10.963 0-15.868.181-20.611.357-4.109.153-7.99.297-15.439.297-2.264 0-4.528-.011-6.791-.024a1388.49 1388.49 0 0 0-6.77-.022c-5.163 0-9.106.062-12.786.202-1.219.055-2.194-.884-2.24-2.076A2.159 2.159 0 0 1 75.887.813c3.737-.142 7.73-.205 12.95-.205 2.264 0 4.528.011 6.792.024 2.256.011 4.513.022 6.769.022 7.37 0 11.212-.142 15.279-.294 4.786-.177 9.731-.36 20.774-.36 8.122 0 16.386.127 24.378.25 7.957.122 16.187.249 24.239.249 2.689 0 5.374-.014 8.057-.046 1.202 0 2.165.943 2.185 2.121.143 8.3.265 16.588.387 24.868.49 33.267.996 67.666 2.953 101.612a2.163 2.163 0 0 1-2.156 2.283 250.403 250.403 0 0 1-4.669-.068c-1.642-.032-3.286-.066-4.928-.066-2.457 0-4.471.076-6.339.239a2.16 2.16 0 0 1-2.279-1.617c-3.887-15.202-14.635-18.53-18.448-18.53-6.299 0-17.49 4.915-22.648 15.843-.365.773-1.156 1.234-2.006 1.237l-1.169-.03c-8.553-.215-17.398-.437-26.087-.437-16.553 0-29.009.791-44.427 2.824a2.167 2.167 0 0 1-2.394-1.697c-2.097-9.959-6.873-21.832-17.717-21.832-15.762 0-23.178 11.266-23.399 21.732a2.16 2.16 0 0 1-2.064 2.113c-3.472.152-6.504.332-9.269.55-.18.014-.36.022-.538.022z" fill="#525D7D"/><path d="M79.454 129.153a2.16 2.16 0 0 1-2.158-2.138c-.202-20.191-.76-40.747-1.301-60.626-.394-14.513-.802-29.52-1.068-44.268-.082-4.544-.425-9.325-.757-13.947a729.979 729.979 0 0 1-.353-5.063A2.158 2.158 0 0 1 75.831.816a2.164 2.164 0 0 1 2.295 2.014c.11 1.676.23 3.357.351 5.035.336 4.679.683 9.518.767 14.177.265 14.728.673 29.725 1.067 44.228.541 19.898 1.1 40.474 1.302 60.702a2.165 2.165 0 0 1-2.159 2.181z" fill="#525D7D"/><path d="M132.368 91.543c-9.253 0-17.89-3.552-24.329-10.007-6.281-6.297-9.859-14.821-9.817-23.388.075-16.014 12.78-30.3 28.925-32.521a27.982 27.982 0 0 1 2.993-.243c10.375-.336 19.755 3.081 26.443 9.574 6.313 6.127 9.785 14.485 9.778 23.533-.013 18.179-15.222 33.006-33.903 33.052h-.09zm-.906-61.862c-.396 0-.793.007-1.192.018-.889.027-1.74.096-2.532.205-14.066 1.936-25.132 14.35-25.197 28.264-.036 7.425 3.082 14.829 8.556 20.317 5.622 5.638 13.174 8.739 21.271 8.739h.079c16.307-.039 29.584-12.932 29.596-28.737.006-7.87-3.001-15.126-8.468-20.432-5.588-5.422-13.404-8.374-22.113-8.374z" fill="#525D7D"/><path d="M117.472 71.187c-3.329 0-5.338 0-5.847-2.003-.479-1.886 1.117-2.754 2.967-3.759 3.656-1.986 10.461-5.684 10.461-13.165 0-2.848-1.12-6.172-4.274-6.172-2.692 0-5.434 3.105-5.434 6.154 0 .405.051.798.152 1.167a2.159 2.159 0 1 1-4.165 1.138 8.705 8.705 0 0 1-.305-2.305c0-5.481 4.648-10.472 9.752-10.472 5.059 0 8.592 4.314 8.592 10.49 0 7.212-4.591 11.743-8.589 14.489a48.779 48.779 0 0 0 8.342-1.338 2.16 2.16 0 0 1 1.047 4.189 52.418 52.418 0 0 1-12.699 1.587z" fill="#525D7D"/><path d="M138.597 67.889c-1.611 0-2.643-.322-3.471-1.019-1.522-1.283-1.472-3.149-1.413-5.308.013-.492.028-1.032.028-1.621 0-2.3.152-4.616.298-6.855.148-2.25.287-4.374.287-6.491 0-.807-.02-1.608-.07-2.402a2.16 2.16 0 0 1 4.309-.27c.055.884.079 1.775.079 2.672 0 2.257-.15 4.553-.296 6.772-.142 2.172-.289 4.416-.289 6.574 0 .633-.015 1.21-.029 1.737-.018.658-.039 1.446.008 1.875 1.534.236 7.023-.86 11.484-1.751a2.154 2.154 0 0 1 2.54 1.694 2.158 2.158 0 0 1-1.694 2.54c-5.894 1.18-9.439 1.853-11.771 1.853z" fill="#525D7D"/><path d="M150.841 71.017a2.158 2.158 0 0 1-1.962-1.254c-2.29-4.961-2.482-10.367-2.482-15.045 0-.818.007-1.633.014-2.444.007-.79.014-1.576.014-2.354a2.159 2.159 0 1 1 4.318 0c0 .791-.007 1.59-.014 2.392-.007.798-.014 1.601-.014 2.406 0 4.218.161 9.069 2.084 13.234a2.16 2.16 0 0 1-1.958 3.065z" fill="#525D7D"/><path d="M3.388 81.839a2.159 2.159 0 0 1-.184-4.31c8.344-.725 15.406-1.134 21.637-1.494 25.664-1.483 30.497-2.186 30.497-15.57 0-3.4-.58-7.117-1.141-10.711-.582-3.731-1.183-7.589-1.183-11.275 0-.758.025-1.507.079-2.245.087-1.191 1.132-2.092 2.312-1.995a2.161 2.161 0 0 1 1.995 2.312 26.06 26.06 0 0 0-.068 1.927c0 3.351.55 6.876 1.132 10.61.586 3.756 1.192 7.641 1.192 11.376 0 17.883-10.119 18.469-34.566 19.881-6.201.359-13.23.765-21.512 1.484a1.74 1.74 0 0 1-.19.01z" fill="#525D7D"/><path d="M24.698 78.121c-.601 0-1.199-.25-1.626-.738-1.059-1.209-2.023-2.444-2.955-3.638-1.869-2.394-3.634-4.656-5.847-6.316a2.16 2.16 0 0 1 2.591-3.456c2.673 2.006 4.7 4.602 6.661 7.113.895 1.148 1.822 2.335 2.801 3.454a2.159 2.159 0 0 1-1.625 3.581z" fill="#525D7D"/><path d="M6.793 119.873a2.159 2.159 0 0 1-.235-4.306c2.582-.285 5.368-2.107 5.368-4.552 0-.756 0-3.056-3.961-3.056-.962 0-2.052.145-3.149.419a2.161 2.161 0 0 1-2.618-1.572 2.157 2.157 0 0 1 1.571-2.617c1.435-.359 2.886-.548 4.196-.548 5.029 0 8.279 2.894 8.279 7.374 0 4.897-4.683 8.342-9.211 8.844a2.174 2.174 0 0 1-.24.014z" fill="#525D7D"/><path d="M41.684 149.475c-5.12 0-9.732-1.704-13.096-4.862-3.366-3.16-5.241-7.526-5.281-12.292-.068-8.504 5.639-15.777 13.571-17.295a21.969 21.969 0 0 1 4.119-.403c11.301 0 17.601 8.619 17.81 16.738.209 8.13-6.243 17.555-15.837 18.079-.432.024-.861.035-1.286.035zm-.653-30.534a17.795 17.795 0 0 0-3.334.325c-5.89 1.126-10.123 6.601-10.072 13.02.03 3.575 1.422 6.836 3.919 9.18 2.775 2.605 6.748 3.916 11.19 3.662 6.921-.378 11.914-7.522 11.756-13.654-.125-4.849-3.891-12.533-13.459-12.533z" fill="#525D7D"/><path d="M40.396 138.999c-.135 0-.272-.003-.411-.007-3.338-.141-6.985-3.406-6.9-7.565.068-3.414 2.683-6.119 5.067-6.667a3.14 3.14 0 0 1 .997-.069 4.764 4.764 0 0 1 1.678-.297c3.247.133 6.789 2.89 6.848 7.111.06 4.27-2.915 7.422-7.074 7.492-.068.002-.136.002-.205.002zm-1.418-9.984c-.598.254-1.552 1.281-1.576 2.499-.037 1.858 1.782 3.122 2.745 3.163.117.004.252.008.382.003 2.118-.035 2.85-1.631 2.829-3.112-.027-1.943-1.776-2.82-2.707-2.858.046.008-.02.035-.085.056-.24.081-.57.194-.976.24-.2.026-.405.03-.612.009zm-.19-.021z" fill="#525D7D"/><path d="M162.333 149.584c-5.123 0-9.736-1.704-13.101-4.863-3.364-3.16-5.239-7.524-5.28-12.291-.068-8.504 5.639-15.777 13.571-17.295a21.988 21.988 0 0 1 4.12-.403c11.301 0 17.601 8.618 17.81 16.737.209 8.132-6.244 17.556-15.837 18.081-.43.021-.859.034-1.283.034zm-.655-30.535a17.822 17.822 0 0 0-3.335.325c-5.89 1.126-10.123 6.601-10.072 13.02.03 3.575 1.421 6.834 3.918 9.179 2.775 2.605 6.753 3.915 11.192 3.663 6.919-.378 11.914-7.522 11.756-13.657-.125-4.847-3.892-12.53-13.459-12.53z" fill="#525D7D"/><path d="M161.042 139.107c-.136 0-.273-.003-.411-.007-3.338-.141-6.985-3.406-6.9-7.565.068-3.414 2.683-6.119 5.067-6.667.323-.073.652-.1.998-.069.374-.132.952-.322 1.678-.297 3.247.133 6.788 2.89 6.848 7.111.059 4.272-2.916 7.422-7.075 7.492-.068.002-.136.002-.205.002zm-1.419-9.984c-.596.253-1.55 1.279-1.575 2.498-.037 1.86 1.782 3.123 2.745 3.164.115.004.252.008.381.003 2.118-.035 2.851-1.632 2.83-3.114-.027-1.941-1.776-2.818-2.707-2.856.045.008-.021.035-.086.056-.24.081-.57.194-.975.24a2.732 2.732 0 0 1-.613.009zm-.19-.022z" fill="#525D7D"/><path d="M99.702 143.028c-18.264 0-18.264-3.982-18.264-5.291 0-.513.039-1.084.08-1.669a21.24 21.24 0 0 0 .075-1.517c0-.333-.02-.6-.058-.793a2.16 2.16 0 1 1 4.235-.84c.095.477.14 1.011.14 1.633 0 .59-.043 1.215-.086 1.825-.018.252-.037.502-.05.742 1.876.911 8.704 1.591 13.926 1.591 3.401 0 8.11-.751 9.581-1.48-.038-.776-.164-1.671-.529-1.878-.615-.349-2.299-.342-4.05-.346h-.318c-3.751 0-7.463.543-11.393 1.118-1.498.219-2.997.439-4.499.626a2.16 2.16 0 0 1-.536-4.285c1.471-.184 2.94-.399 4.409-.614 3.91-.571 7.954-1.163 12.018-1.163h.315c2.558.003 4.57-.003 6.176.904 2.428 1.37 2.739 4.071 2.739 6.27.003 5.022-12.487 5.167-13.911 5.167z" fill="#525D7D"/></g></g></svg>