<svg xmlns="http://www.w3.org/2000/svg" x="0" y="0" viewBox="0 0 198.968 213.335" enable-background="new 0 0 198.968 213.335" width="198.968" height="213.335"><title>67</title><g class="nc-icon-wrapper"><g id="_x36_7"><path d="M98.568 153.004c-15.799.963-31.711 1.352-47.455 3.051-12.286 1.326-27.036 6.325-38.399-.64-.923-.566-2.239.379-1.883 1.448 4.003 12.01 20.294 11.182 30.512 11.693 19.077.954 38.142-.002 57.226-.439 9.753-.222 9.678-15.703-.001-15.113z" fill="#E0DFE6"/><path d="M161.539 121.944c-1.158-.477-3.099.039-3.873 1.024-4.593 5.84.04 11.9.045 18.66.006 7.922-4.701 10.518-10.457 14.227-1.206-2.074-3.456-3.4-6.286-2.364-5.427 1.987-13.464 2.862-17.012 7.833-.975 1.366-.107 3.046 1.026 3.912 4.941 3.783 13.696.892 19.107-.425 2.066-.503 3.284-1.807 3.816-3.371 7.494 3.855 15.861-4.585 18.59-11.034 3.303-7.805 4.136-24.717-4.956-28.462z" fill="#E0DFE6"/><path d="M89.881 135.03c-10.855 1.435-22.187.628-33.128.932-9.355.26-21.273.162-29.545 5.07-1.093.649-1.092 2.264 0 2.913 8.66 5.145 21.137 4.872 30.911 5.113 11.155.275 22.516 1.084 33.593-.498 7.6-1.085 5.875-14.549-1.831-13.53z" fill="#E0DFE6"/><path d="M171.526 182.739c-4.747 2.222-8.341 5.774-12.36 9.08-2.989 2.459-5.999 4.898-8.996 7.349l-.092-4.41c-.077-3.703-2.838-5.85-6.275-6.275-9.998-1.234-19.556-4.723-28.228-9.83-1.944-1.145-4.364 1.168-3.139 3.139 5.905 9.49 14.754 15.447 25.198 18.079l.074 3.555c.096 4.622 4.256 6.59 7.761 5.917 1.663 3.2 5.601 5.394 9.071 2.936 8.615-6.104 18.972-15.687 20.949-26.493.441-2.401-1.768-4.075-3.963-3.047z" fill="#E0DFE6"/><path d="M181.416 114.637c-.745-.28-1.173.736-.722 1.24 14.269 15.945 7.553 37.259-5.755 50.971-6.091 6.276 2.955 14.935 9.462 9.462 17.464-14.688 22.356-52.163-2.985-61.673z" fill="#E0DFE6"/><path d="M40.266 24.476c-3.362 0-6.031 2.554-7.608 5.287-1.028 1.781-2.028 3.555-3.265 4.313-.962.59-3.186.897-4.728 1.227-2.304.493-3.24 2.97-2.865 5.046 1.095 6.071 8.623 7.476 13.673 6.126 6.049-1.617 11.359-8.375 11.223-14.714-.072-3.422-2.723-7.285-6.43-7.285z" fill="#E0DFE6"/><path d="M141.71 25.184c-.647-2.653-3.151-4.187-5.718-4.353-2.04-.132-4.114 1.217-5.12 2.937-1.024 1.75-.442 3.426-1.22 4.894-1.826 3.45-6.045 3.63-9.536 3.849-2.142.134-3.637 3.495-1.226 4.526 4.818 2.061 10.118 3.842 15.305 1.945 5.594-2.046 8.93-7.998 7.515-13.798z" fill="#E0DFE6"/><path d="M150.373 46.877c-11.184-1.545-22.897-.379-34.168-.151-11.873.241-23.747.404-35.619.679-23.743.548-47.599.887-71.238 3.258-2.083.209-2.079 3.02 0 3.239 23.629 2.483 47.495 2.828 71.238 3.259 11.397.207 22.796.28 34.194.4 11.721.124 23.988 1.242 35.593-.534 4.994-.765 5.059-9.451 0-10.15z" fill="#E0DFE6"/><path d="M171.102 98.693c.105-15.941-1.788-32.292-4.589-47.925-1.84-10.268-3.519-27.221-16.144-29.722-1.668-.33-2.574 1.441-1.575 2.706 3.302 4.182 3.457 9.81 4.06 14.842.884 7.377 2.126 14.712 2.972 22.099 1.549 13.536 1.754 26.993 2.271 40.582.281 7.385 10.47 8.742 12.763 1.727l.308-.943c.369-1.128.3-2.292-.066-3.366z" fill="#E0DFE6"/><path d="M51.716 14.314c-2.682-4.597-7.299-7.505-10.717-11.456-2.439-2.819-6.318.769-4.875 3.761 2.097 4.348 2.817 9.504 5.726 13.461 1.825 2.482 4.954 3.723 7.816 2.049 2.673-1.563 3.61-5.141 2.05-7.815z" fill="#E0DFE6"/><path d="M145.934 13.17c-1.309-2.582-3.813-4.316-5.728-6.43-1.606-1.773-3.032-3.929-5.378-4.736-.889-.306-2.079.195-2.514 1.023-1.322 2.514-.499 5.582.24 8.168.897 3.14 1.9 6.665 4.4 8.905 4.874 4.366 11.951-1.07 8.98-6.93z" fill="#E0DFE6"/><path d="M89.693 88.417c-1.805-3.264-6.31-5.03-9.893-2.946-.165.096-.335.189-.501.284-1.445-2.823-5.353-4.301-8.77-1.608-3.233 2.547-6.836 5.03-9.489 8.191l.11.064c-.896 1.082-1.219 2.522-1.063 3.88l-1.653 2.052c-3.33 4.126-1.577 9.135 2.164 10.775-.585 5.684 6.046 10.525 11.657 7.458a125.725 125.725 0 0 0 5.095-2.956c1.522 1.815 3.829 2.824 6.298 3.052l.673.062c2.492.231 5.694-1.611 6.758-3.876l.241-.512c.743-1.582 1.049-3.337.8-4.995.813-1.906 2.739-5.207 3.345-6.503 2.356-5.035-.892-11.507-5.772-12.422z" fill="#E0DFE6"/><path d="M15.281 161.308a12.748 12.748 0 0 1-9.093-3.826 12.702 12.702 0 0 1-3.593-9.491c.337-6.675.651-13.858.651-21.149L.053 44.349a2.16 2.16 0 0 1 2.075-2.241c1.22-.032 2.196.883 2.241 2.075l3.194 82.575c.001 7.47-.313 14.718-.655 21.451a8.266 8.266 0 0 0 2.368 6.254c1.654 1.692 3.88 2.558 6.234 2.523l87.508-2.437c1.154-.068 2.186.905 2.218 2.097a2.157 2.157 0 0 1-2.097 2.218l-87.508 2.437a6.833 6.833 0 0 1-.35.007z" fill="#525D7D"/><path d="M132.104 158.058a2.158 2.158 0 0 1-.059-4.317l15.789-.44a8.323 8.323 0 0 0 5.881-2.645 8.323 8.323 0 0 0 2.26-6.041l-.634-17.284a2.158 2.158 0 0 1 2.079-2.236c1.189-.09 2.193.885 2.236 2.079l.634 17.284a12.609 12.609 0 0 1-3.426 9.151 12.603 12.603 0 0 1-8.91 4.009l-15.79.44h-.06z" fill="#525D7D"/><path d="M156.55 104.255a2.158 2.158 0 0 1-2.155-2.058l-3.42-73.35a8.337 8.337 0 0 0-8.537-7.988l-12.198.241a2.16 2.16 0 1 1-.088-4.319l12.198-.242.264-.003c6.809 0 12.353 5.27 12.672 12.107l3.42 73.35a2.158 2.158 0 0 1-2.156 2.262z" fill="#525D7D"/><path d="M35.65 22.977a2.16 2.16 0 0 1-.042-4.319l83.162-1.65h.044a2.16 2.16 0 0 1 .041 4.318l-83.159 1.65-.046.001z" fill="#525D7D"/><path d="M2.203 46.111a2.16 2.16 0 0 1-2.155-2.046A36.403 36.403 0 0 1 0 42.21c0-11.003 4.89-22.941 15.628-23.155l8.673-.172h.044a2.16 2.16 0 0 1 .041 4.318l-8.671.172C6.699 23.552 4.318 35.772 4.318 42.21c0 .552.014 1.096.042 1.629a2.159 2.159 0 0 1-2.044 2.269l-.113.003z" fill="#525D7D"/><path d="M25.121 37.216a2.163 2.163 0 0 1-1.432-.542 2.163 2.163 0 0 1-.724-1.5c-.111-2.066-.229-4.135-.346-6.206-.423-7.467-.86-15.188-1.03-22.742a2.167 2.167 0 0 1 .675-1.617 2.153 2.153 0 0 1 1.652-.583c3.754.291 7.248.377 10.805.254.574-.042 1.148.195 1.57.6.42.403.659.961.663 1.545.031 5.083.496 10.271.946 15.289.339 3.776.689 7.68.86 11.568a2.16 2.16 0 0 1-1.832 2.229c-1.13.173-2.262.37-3.397.567-2.669.464-5.43.943-8.267 1.133a1.693 1.693 0 0 1-.143.005zm.847-28.727c.198 6.729.586 13.583.963 20.234l.224 3.975c1.893-.224 3.788-.552 5.638-.873.52-.09 1.037-.18 1.555-.268-.184-3.167-.47-6.355-.748-9.456-.394-4.398-.8-8.923-.925-13.456a98.882 98.882 0 0 1-6.707-.156z" fill="#525D7D"/><path d="M119.475 33.201a2.163 2.163 0 0 1-2.156-2.043c-.111-2.069-.229-4.139-.346-6.213-.423-7.464-.86-15.182-1.03-22.735a2.16 2.16 0 0 1 .675-1.615c.441-.419 1.026-.652 1.65-.585 3.788.292 7.267.374 10.807.253.573-.035 1.148.197 1.57.6.42.403.659.961.664 1.545.031 5.083.496 10.271.946 15.289.339 3.775.689 7.68.86 11.57a2.16 2.16 0 0 1-1.831 2.229c-1.127.173-2.259.37-3.393.566-2.671.464-5.433.943-8.271 1.133a1.43 1.43 0 0 1-.145.006zm.846-28.725c.198 6.726.586 13.577.963 20.227l.224 3.981c1.895-.224 3.791-.552 5.642-.874.517-.09 1.034-.18 1.55-.267-.184-3.167-.469-6.356-.748-9.459-.394-4.397-.8-8.922-.925-13.453a99.933 99.933 0 0 1-6.706-.155z" fill="#525D7D"/><path d="M2.392 51.157a2.158 2.158 0 0 1-.07-4.316l151.449-5c1.241-.084 2.19.895 2.229 2.086a2.158 2.158 0 0 1-2.086 2.229l-151.449 5a1.802 1.802 0 0 1-.073.001z" fill="#525D7D"/><path d="M148.862 206.18a2.158 2.158 0 0 1-2.148-1.944c-.162-1.609-.377-3.206-.59-4.8-.238-1.766-.481-3.577-.651-5.406-25.11-1.255-45.881-22.677-45.791-47.738.076-20.763 13.815-39.296 33.409-45.067a51.38 51.38 0 0 1 15.508-2.111c25.307.478 44.872 20.004 45.509 45.419a49.497 49.497 0 0 1-11.169 32.578 2.158 2.158 0 0 1-3.038.302 2.156 2.156 0 0 1-.302-3.038 45.19 45.19 0 0 0 10.191-29.736c-.576-23.059-18.32-40.775-41.272-41.208-4.753-.098-9.544.559-14.207 1.934-17.779 5.237-30.242 22.074-30.311 40.943-.083 22.982 20.241 43.291 43.492 43.46a2.158 2.158 0 0 1 2.139 2.031c.139 2.34.447 4.634.773 7.063.006.048.013.097.018.146l16.57-18.678-18.514-12.866c-.146 3.345-.178 6.651-.186 9.794a2.159 2.159 0 0 1-2.263 2.151c-17.295-.836-31.855-15.958-31.793-33.023.052-14.363 9.558-27.184 23.117-31.177a35.507 35.507 0 0 1 10.71-1.458c17.513.33 31.052 13.841 31.495 31.427a34.205 34.205 0 0 1-7.72 22.515 2.156 2.156 0 0 1-3.037.302 2.156 2.156 0 0 1-.302-3.038 29.878 29.878 0 0 0 6.741-19.672c-.382-15.23-12.1-26.932-27.258-27.217a31.2 31.2 0 0 0-9.408 1.28c-11.743 3.459-19.974 14.584-20.019 27.053-.055 15.447 12.713 26.725 25.431 28.482.029-3.722.119-7.63.406-11.552a2.157 2.157 0 0 1 3.386-1.615l23.675 16.453a2.157 2.157 0 0 1 .382 3.205l-21.359 24.076a2.141 2.141 0 0 1-1.614.73z" fill="#525D7D"/><path d="M26.087 140.314a2.16 2.16 0 0 1-2.158-2.111c-.246-11.251-.964-22.645-1.66-33.664-.82-13.001-1.667-26.446-1.753-39.805a2.159 2.159 0 0 1 2.093-2.172l109.793-3.392c1.175-.069 2.165.876 2.222 2.049.117 2.342.174 4.764.174 7.406 0 5.585-.268 11.209-.527 16.647-.26 5.458-.529 11.102-.529 16.726a2.16 2.16 0 0 1-4.318 0c0-5.727.271-11.422.534-16.931.256-5.388.521-10.96.521-16.442 0-1.781-.027-3.458-.08-5.074L24.854 66.813c.155 12.548.952 25.199 1.725 37.455.654 10.364 1.328 21.059 1.615 31.693 20.604-.333 41.497-.333 61.727-.333a2.16 2.16 0 0 1 0 4.318c-20.913 0-42.537 0-63.795.368h-.039z" fill="#525D7D"/><path d="M62.16 139.976c-1.071 0-2-.796-2.139-1.886-1.768-13.889-2.807-28.026-3.812-41.695-.783-10.655-1.593-21.672-2.741-32.463a2.158 2.158 0 0 1 1.917-2.376 2.143 2.143 0 0 1 2.376 1.917c1.157 10.863 1.969 21.915 2.755 32.604 1.001 13.615 2.035 27.694 3.79 41.468a2.16 2.16 0 0 1-2.146 2.431z" fill="#525D7D"/><path d="M95.94 124.801a2.16 2.16 0 0 1-2.151-2.012c-.505-7.392-.788-14.88-1.064-22.122-.471-12.406-.957-25.235-2.57-37.824a2.162 2.162 0 0 1 1.868-2.416 2.17 2.17 0 0 1 2.416 1.868c1.636 12.78 2.127 25.708 2.6 38.209.274 7.21.557 14.664 1.056 21.99a2.157 2.157 0 0 1-2.155 2.307z" fill="#525D7D"/><path d="M23.367 88.69a2.158 2.158 0 0 1-.027-4.318l108.747-1.331h.027a2.158 2.158 0 0 1 .027 4.318L23.394 88.69h-.027z" fill="#525D7D"/><path d="M25.196 119.209a2.16 2.16 0 0 1-.044-4.318c27.115-.557 49.4-1.528 70.131-3.056a2.16 2.16 0 0 1 .317 4.307c-20.81 1.534-43.167 2.509-70.359 3.067h-.045z" fill="#525D7D"/><path d="M33.209 112.845a2.157 2.157 0 0 1-1.435-3.772c1.095-.974 2.16-1.948 3.219-2.915 3.254-2.973 6.621-6.048 10.527-8.782a2.159 2.159 0 1 1 2.477 3.537c-3.677 2.575-6.792 5.422-10.091 8.434-1.072.98-2.152 1.968-3.264 2.955a2.162 2.162 0 0 1-1.433.543z" fill="#525D7D"/><path d="M45.604 112.093c-.441 0-.886-.133-1.268-.413-3.414-2.482-6.037-5.407-8.574-8.237-1.725-1.922-3.507-3.909-5.504-5.707a2.16 2.16 0 0 1-.16-3.05 2.161 2.161 0 0 1 3.05-.16c2.167 1.952 4.029 4.029 5.829 6.034 2.496 2.784 4.855 5.414 7.898 7.628a2.158 2.158 0 0 1-1.271 3.905z" fill="#525D7D"/></g></g></svg>