<svg xmlns="http://www.w3.org/2000/svg" x="0" y="0" viewBox="0 0 233.269 205.914" enable-background="new 0 0 233.269 205.914" width="233.269" height="205.914"><title>79</title><g class="nc-icon-wrapper"><g id="_x37_9"><path d="M61.391 142.268c-2.881 1.617-4.567 5.19-6.658 7.688-2.253 2.692-4.628 5.287-6.814 8.031-1.463 1.837.35 4.791 2.657 3.444 3.197-1.866 6.09-4.311 8.665-6.966 2.337-2.409 5.865-5.437 6.51-8.845.473-2.493-1.981-4.687-4.36-3.352z" fill="#E0DFE6"/><path d="M233.196 71.235c-.307-11.288.215-23.469-3.673-34.179-1.143-3.148-4.827-4.149-7.17-2.509-.442-2.709-1.054-5.33-1.918-7.787-.063-.179-.147-.33-.219-.496a19.47 19.47 0 0 0 3.223-1.391c3.555-1.959 2.248-6.686-1.04-7.954-7.773-2.999-18.645-.228-26.884.233-10.013.561-20.023 1.139-30.044 1.562-9.541.403-19.088.65-28.63 1.041-9.242.379-18.814.122-27.885 2.101-2.471.539-2.417 4.371 0 4.945 18.334 4.352 39.226 2.377 57.946 2.072 9.538-.155 19.082-.36 28.612-.773 4.192-.182 9.098.048 13.916-.152-.017.106-.049.202-.062.31-1.042 8.683.832 18.013.974 26.784.056 3.453 1.243 9.557-.135 12.753-1.906 4.419-11.521 4.105-15.418 4.47-8.805.826-17.669.889-26.506 1.027-9.171.143-18.716 1.5-27.824 1.144-1.383-.054-2.459.446-3.218 1.232 2.603-6.411 3.498-13.775 1.215-19.562-1.137-2.882-4.592-3.418-6.413-.838-5.198 7.364-3.858 17.429-11.3 23.541-3.343 2.745-6.424 4.288-7.587 8.803-1.17 4.545-.105 9.469-.987 14.109-1.906 10.018-7.372 19.03-15.342 25.385-9.113 7.267-19.106 8.175-30.043 10.464-.993.208-1.149 1.689-.282 2.158 9.538 5.159 22.109 2.77 31.591-1.414 10.775-4.754 18.71-13.77 23.224-24.522 2.119-5.047 3.302-10.372 3.653-15.837.142-2.208-.743-5.829.413-7.769.974-1.635 4.22-3.053 5.612-4.517 1.881-1.979 3.581-4.483 4.982-7.253-.255 2.126.768 4.449 3.245 5.165.468.135.946.252 1.423.372-4.905 1.611-9.4 4.118-10.996 6.099-1.933 2.4-1.494 6.285 1.891 7.161.361.093.712.162 1.059.22-1.922 1.293-3.859 2.566-5.762 3.879-2.657 1.833-1.543 5.149 1.048 5.746-.254.448-.465.919-.573 1.429-2.478 11.687-10.148 21.128-20.413 27.083-6.062 3.517-12.648 5.69-19.401 7.431-5.631 1.452-12.22 1.637-17.308 4.451-1.62.896-1.719 3.559 0 4.428 6.216 3.141 14.665 2.142 21.373 1.182 8.182-1.171 16.172-3.821 23.317-8.007 11.011-6.45 19.63-16.493 23.542-28.567 7.728-.349 15.627-1.769 21.245-7.508 3.266-3.336 5.121-7.331 5.522-11.503 9.543.414 19.088.432 28.632-.247 9.685-.689 21.784-.983 30.771-4.86 9.07-3.912 8.836-12.594 8.604-21.135zm-91.114 31.888a57.936 57.936 0 0 0 3.261-1.675c2.18-1.212 5.084-2.821 7.463-4.826-.123 3.917-5.524 5.698-10.724 6.501zm74.526-23.174a13.034 13.034 0 0 0 2.143-1.904c-.324 1.151-1.007 1.62-2.143 1.904z" fill="#E0DFE6"/><path d="M104.081 65.904c-1.471-5.12-7.835-5.375-10.656-1.393-2.14 3.02-4.154 6.108-6.167 9.214-1.825 2.814-3.948 5.85-4.416 9.235-.146 1.052.596 2.024 1.743 1.743 2.783-.681 5.164-2.46 7.394-4.271.107.095.203.205.316.29 2.579 1.927 5.672 1.552 8.074-.481 4.024-3.405 5.115-9.455 3.712-14.337z" fill="#E0DFE6"/><path d="M59.861 160.682c-2.002-1.603-4.863-1.597-6.305.812-2.175 3.634-1.752 6.621-.863 10.674.57 2.598 1.009 4.839.994 6.998-4.272 2.248-7.891 5.183-11.69 8.155-1.937 1.516.566 4.68 2.616 3.391 2.433-1.53 4.814-3.015 7.097-4.651-.176.298-.365.599-.569.904-2.312 3.452-5.616 7.002-8.856 9.631-1.7 1.379-5.191 1.559-6.346 3.208l-.413.59c-.461.658-.407 1.694 0 2.358 5.573 9.091 20.345-3.818 24.663-8.805 7.261-8.385 9.272-25.578-.328-33.265z" fill="#E0DFE6"/><g><path d="M131.516 87.352a2.158 2.158 0 0 1-.018-4.318l77.1-.645a11.13 11.13 0 0 0 8.029-3.548 11.253 11.253 0 0 0 2.974-8.31c-.596-9.644-.873-20.084-.873-32.857 0-7.103.081-14.188.181-22.049a11.259 11.259 0 0 0-3.244-8.029 11.15 11.15 0 0 0-7.87-3.278h-.098l-91.057.845c-6.109.058-11.044 5.101-11.002 11.242l.387 55.66c.004.675.07 1.355.197 2.021a2.159 2.159 0 1 1-4.242.804 15.727 15.727 0 0 1-.273-2.794l-.387-55.66C101.261 7.919 108.116.925 116.601.845L207.658 0c4.061-.024 8.164 1.622 11.074 4.554a15.614 15.614 0 0 1 4.497 11.124c-.1 7.848-.181 14.918-.181 21.995 0 12.682.274 23.038.864 32.591a15.594 15.594 0 0 1-4.12 11.514 15.468 15.468 0 0 1-11.158 4.928l-77.118.646z" fill="#525D7D"/><path d="M103.499 21.684a2.158 2.158 0 0 1-.195-4.308c.468-.044.943-.076 1.425-.091 18.83-.621 37.966-.706 56.473-.787 19.593-.086 39.854-.176 59.762-.902 1.154-.055 2.193.887 2.236 2.079a2.158 2.158 0 0 1-2.079 2.236c-19.978.73-40.273.818-59.901.905-18.476.082-37.58.166-56.351.784-.398.013-.786.039-1.169.074-.068.007-.134.01-.201.01z" fill="#525D7D"/><path d="M103.594 35.037a2.16 2.16 0 0 1-.025-4.318c29.086-.336 58.668-1.216 87.277-2.065 10.004-.298 20.008-.595 30.012-.87 1.226-.001 2.184.926 2.217 2.099a2.158 2.158 0 0 1-2.099 2.217c-10 .277-20.001.573-30.002.87-28.627.85-58.23 1.73-87.38 2.067z" fill="#525D7D"/><path d="M181.462 72.383a2.157 2.157 0 0 1-2.153-2.034c-.193-3.327-.287-6.672-.377-9.908-.081-2.928-.166-5.954-.323-8.947a2.16 2.16 0 0 1 1.685-2.221c6.404-1.429 13.023-1.539 19.425-1.644 2.534-.041 5.157-.084 7.72-.21a2.187 2.187 0 0 1 1.563.564c.424.388.676.931.7 1.505.149 3.7.44 7.516.723 11.206.205 2.69.41 5.372.564 8.029a2.157 2.157 0 0 1-1.785 2.252c-6.508 1.133-13.145 1.195-19.565 1.255-2.655.024-5.4.051-8.092.152l-.085.001zm1.548-19.255c.105 2.425.173 4.841.239 7.193.07 2.519.142 5.105.261 7.68 2.048-.051 4.093-.07 6.086-.089 5.86-.055 11.428-.107 16.959-.891-.131-1.989-.284-3.992-.437-5.998-.23-3.021-.468-6.124-.631-9.203-1.917.065-3.83.096-5.698.127-5.829.096-11.369.187-16.779 1.181z" fill="#525D7D"/><path d="M197.823 72.191c-.326 0-.658-.073-.969-.231-2.973-1.494-7.947-3.996-7.947-10.542 0-5.909 4.417-11.37 10.056-12.431 1.161-.232 2.301.548 2.52 1.722a2.157 2.157 0 0 1-1.722 2.52c-3.542.668-6.536 4.418-6.536 8.189 0 3.598 2.414 5.098 5.569 6.685a2.159 2.159 0 0 1-.971 4.088z" fill="#525D7D"/><path d="M181.679 62.922a2.16 2.16 0 0 1 0-4.318c3.078 0 6.261 0 9.363-.077 1.178.027 2.183.914 2.212 2.106a2.16 2.16 0 0 1-2.106 2.212c-3.155.077-6.366.077-9.469.077z" fill="#525D7D"/><path d="M78.969 146.49c-6.158 0-12.897-.85-20.027-2.527a2.16 2.16 0 0 1 .989-4.203c6.806 1.601 13.212 2.412 19.038 2.412 26.453 0 42.246-17.255 42.246-46.158 0-1.376-.086-2.994-.127-3.77a21.64 21.64 0 0 1-.024-.538c0-.329.013-.651.027-.967a2.159 2.159 0 0 1 1.206-1.843c6.514-3.194 15.175-9.319 15.175-25.574 0-3.974-1.815-10.645-3.389-12.046-5.242 4.833-31.954 29.191-53.071 43.334a2.159 2.159 0 1 1-2.403-3.587c23.118-15.484 53.139-43.466 53.44-43.748a2.162 2.162 0 0 1 1.474-.582c7.522 0 8.268 16.463 8.268 16.629 0 13.528-5.363 22.974-16.383 28.834.045.857.125 2.449.125 3.859 0 31.606-17.407 50.475-46.564 50.475z" fill="#525D7D"/><path d="M124.274 110.052c-.365 0-.728-.006-1.088-.017a2.157 2.157 0 0 1-2.094-2.221c.035-1.19.997-2.191 2.221-2.094.318.008.638.014.962.014 10.149 0 26.249-5.149 26.249-18.963 0-.294-.007-.59-.022-.89a2.158 2.158 0 0 1 2.048-2.264c1.199-.02 2.204.856 2.264 2.048.018.372.028.742.028 1.106 0 7.302-3.622 13.448-10.475 17.773-5.547 3.5-12.871 5.508-20.093 5.508z" fill="#525D7D"/><path d="M145.929 101.541a2.159 2.159 0 0 1-2.03-1.424c-.437-1.206-.783-2.482-1.116-3.715-.87-3.213-1.692-6.249-3.972-8.082a2.158 2.158 0 1 1 2.705-3.365c3.376 2.713 4.47 6.754 5.436 10.319.325 1.2.632 2.336 1.008 3.374a2.158 2.158 0 0 1-2.031 2.893z" fill="#525D7D"/><path d="M135.549 108.491a2.159 2.159 0 0 1-2.153-2.024c-.343-5.507-4.379-10.622-8.282-14.9a2.159 2.159 0 1 1 3.191-2.91c4.41 4.833 8.975 10.697 9.401 17.54a2.16 2.16 0 0 1-2.157 2.294z" fill="#525D7D"/><path d="M2.161 143.634a2.16 2.16 0 0 1-1.09-4.024c37.202-21.7 37.287-23.053 38.336-39.619.349-5.483.78-12.309 2.47-21.811.318-1.792.54-3.454.753-5.06 2.142-16.087 5.475-21.363 61.133-25.263 1.178-.101 2.22.814 2.304 2.003a2.158 2.158 0 0 1-2.003 2.304c-54.797 3.84-55.44 8.656-57.153 21.527-.219 1.652-.447 3.361-.783 5.246-1.646 9.263-2.069 15.953-2.411 21.328-1.172 18.505-2.37 20.853-40.47 43.077a2.158 2.158 0 0 1-1.086.292z" fill="#525D7D"/><path d="M49.826 166.804a2.159 2.159 0 0 1-1.573-3.638c7.373-7.842 14.745-14.557 21.914-19.959a2.158 2.158 0 1 1 2.598 3.45c-6.972 5.254-14.16 11.803-21.366 19.467-.425.453-.998.68-1.573.68z" fill="#525D7D"/><path d="M37.14 203.106a2.16 2.16 0 0 1-1.531-3.682c6.844-6.874 14.188-13.016 21.749-19.153a24.23 24.23 0 0 1-1.61-2.023c-3.486-4.945-6.837-9.785-10.136-14.548-7.035-10.16-13.68-19.755-20.961-29.421a2.16 2.16 0 0 1 3.45-2.598c7.333 9.734 14.001 19.364 21.061 29.561 3.293 4.754 6.637 9.584 10.116 14.519.842 1.195 1.881 2.293 2.787 3.229a2.156 2.156 0 0 1-.193 3.181c-8.101 6.552-15.97 13.035-23.203 20.302-.42.421-.975.633-1.529.633z" fill="#525D7D"/><path d="M42.386 186.636c-.063 0-.127 0-.19-.003-3.556-.089-6.323-2.709-6.431-6.093-.058-1.825.779-3.562 2.353-4.89 1.712-1.446 3.84-2.11 5.84-1.824 3.073.441 5.237 3.011 5.267 6.247.017 1.664-.697 3.331-1.958 4.573a6.902 6.902 0 0 1-4.881 1.99zm-1.482-7.687c-.256.215-.845.787-.824 1.455.035 1.077.971 1.882 2.227 1.913a2.528 2.528 0 0 0 1.931-.751c.43-.423.675-.953.669-1.453-.01-1.122-.593-1.874-1.56-2.013-.766-.1-1.696.218-2.443.849z" fill="#525D7D"/></g></g></g></svg>