<svg xmlns="http://www.w3.org/2000/svg" x="0" y="0" viewBox="0 0 196.669 180.28" enable-background="new 0 0 196.669 180.28" width="196.669" height="180.28"><title>81</title><g class="nc-icon-wrapper"><g id="_x38_1"><path d="M176.516 123.202c-.654-7.158-1.718-16.242-8.864-19.647.967-.579 1.798-1.483 2.299-2.798 8.051-21.148.458-53.716-19.185-66.553-.333-.218-.731.141-.644.495 1.112 4.563 2.817 8.973 4.585 13.376 1.007 7.284 2.76 14.419 3.3 21.805.432 5.904 2.461 19.698-2.149 24.154-1.755 1.696-1.128 4.35.724 5.616l.882.604c.677.463 1.598.636 2.495.582.647 2.329 2.99 3.62 5.303 3.471-.01.114-.009.227.009.336 1.159 7.011 1.926 13.715 2.084 20.843.038 1.704-.087 3.413-.283 5.122-1.735 3.121-2.616 6.502-4.306 10.082-3.134 6.64-9.01 9.978-15.813 12.034-7.048 2.13-14.803 2.495-21.893.323-4.201-1.287-7.822-3.633-11.565-5.78a.774.774 0 0 0 .396-.816c-1.274-6.496-5.219-12.348-4.843-19.133.345-6.219 3.216-12.186 6.921-17.082 3.395-4.486 7.808-8.105 12.847-10.612 5.345-2.659 11.14-2.377 16.485-4.516 2.989-1.197 3.067-5.005 0-6.181-12.7-4.868-29.716 7.998-36.542 17.675-9.519 13.494-7.343 28.155 3.399 39.92a46.479 46.479 0 0 0-3.023-1.549c-2.013-.926-4.682.614-3.959 3.043 1.588 5.336 5.087 9.215 9.574 11.915a6.13 6.13 0 0 0-1.527.576c-15.409 8.431-32.975 10.869-49.969 6.139-15.639-4.353-27.449-14.444-39.859-24.35-.348-.278-.924-.033-.789.46 4.709 17.24 21.433 29.104 37.776 34.313 19.375 6.174 41.043 3.176 58.631-6.657 3.237-1.809 3.397-5.189 1.937-7.66 9.008 3.037 19.84 2.831 27.64.804 8.454-2.197 17.998-8.078 23.35-15.941 6.301-5.554 5.266-16.868 4.576-24.413z" fill="#E0DFE6"/><path d="M145.47 124.234c-2.157.437-4.348.759-6.534 1.101 1.303-.551 2.165-2.29 2.101-3.577-.297-5.978-.76-12.88-2.874-18.508-.687-1.828-3.377-2.075-3.969 0-1.642 5.762-1.581 12.557-1.382 18.508.062 1.858 1.241 3.422 3.019 3.965.141.043.258.048.388.074-1.641.29-3.274.609-4.876 1.048-1.066.292-1.32 1.858-.314 2.405 3.892 2.115 8.39 2.757 12.78 2.637 3.01-.082 8.799-.174 8.934-4.432.127-3.91-4.611-3.761-7.273-3.221z" fill="#E0DFE6"/><path d="M196.603 119.037c-.256-2.765-2.18-5.142-5.142-5.142-2.799 0-5.128 2.353-5.142 5.142-.011 2.232-.112 4.545-.779 6.681-1.431-1.006-2.811-2.685-4.036-3.277-.977-.473-2.295-.126-2.577 1.048-1.181 4.918 4.631 12.897 9.923 11.783 6.08-1.281 8.239-10.998 7.753-16.235z" fill="#E0DFE6"/><path d="M96.775 143.312c-.183-4.118-4.798-5.831-7.811-3.236-1.586 1.366-1.943 3.236-3.577 4.55-.743.598-1.569 1.01-2.42 1.371-16.379.959-30.902-4.768-44.351-14.069-.467-.323-.98.294-.739.739 9.17 16.854 29.164 25.087 47.729 23.995 3.193-.188 4.89-2.6 5.159-5.106 3.439-1.683 6.165-4.76 6.01-8.244z" fill="#E0DFE6"/><path d="M148.95 56.987c-3.081-8.169-6.598-16.331-11.879-23.343-8.644-11.476-24.141-20.721-38.605-15.009-.577.228-.473.991.144 1.06 14.624 1.641 25.514 10.2 32.782 22.732 3.377 5.823 5.77 12.092 7.88 18.464 1.827 5.516 1.893 11.813 4.447 16.878 1.214 2.407 4.306 2.278 6.093.785 6.371-5.32 1.548-15.175-.862-21.567z" fill="#E0DFE6"/><g><path d="M135.286 157.622c-9.691 0-18.762-3.582-25.725-10.201-7.048-6.7-11.099-15.856-11.113-25.119-.026-17.877 13.905-33.367 31.715-35.265 1.923-.204 3.52-.294 4.876-.273 19.098.299 33.834 14.787 34.277 33.7.245 10.4-2.988 19.549-9.349 26.458-5.929 6.441-14.004 10.224-22.739 10.652-.649.032-1.297.048-1.942.048zm-4.664-66.292c-15.642 1.667-27.877 15.268-27.855 30.965.013 8.087 3.574 16.105 9.77 21.995 6.562 6.239 15.262 9.419 24.481 8.971 14.271-.7 28.465-12.156 27.983-32.697-.389-16.546-13.297-29.222-30.028-29.483-1.152-.023-2.63.066-4.351.249z" fill="#525D7D"/><path d="M131.012 175.806c-.065 0-.13-.003-.195-.008-19.25-1.725-36.021-12.867-44.861-29.804a2.157 2.157 0 0 1 .915-2.912 2.157 2.157 0 0 1 2.913.915c8.157 15.628 23.641 25.908 41.418 27.5a2.16 2.16 0 0 1-.19 4.309z" fill="#525D7D"/><path d="M184.975 115.005a2.16 2.16 0 0 1-2.132-1.834c-2.539-16.649-13.186-30.372-28.48-36.708a2.16 2.16 0 0 1 1.653-3.989c16.702 6.919 28.326 21.89 31.095 40.047a2.159 2.159 0 0 1-2.136 2.484z" fill="#525D7D"/><path d="M84.099 168.599c-21.758.001-42.282-8.325-58.041-23.602C9.531 128.976.033 106.95 0 84.566-.059 42.037 31.687 5.182 72.272.661c4.362-.485 8.121-.697 11.169-.656 37.098.606 67.606 25.703 75.913 62.452a2.159 2.159 0 1 1-4.211.952C147.282 28.64 118.439 4.896 83.37 4.323c-2.865-.044-6.441.165-10.621.63C34.321 9.233 4.262 44.201 4.318 84.56c.032 21.224 9.051 42.122 24.746 57.337 15.525 15.049 35.932 22.993 57.441 22.349a2.16 2.16 0 0 1 .128 4.316c-.846.025-1.692.037-2.534.037z" fill="#525D7D"/><path d="M142.372 69.191a2.16 2.16 0 0 1-2.104-1.684c-2.864-12.67-9.236-23.802-18.427-32.195a2.158 2.158 0 1 1 2.912-3.188c9.845 8.99 16.666 20.897 19.725 34.432a2.16 2.16 0 0 1-2.106 2.635z" fill="#525D7D"/><path d="M17.462 93.956a2.157 2.157 0 0 1-2.141-1.907 65.718 65.718 0 0 1-.448-7.533c-.048-34.579 25.771-64.547 58.778-68.224 3.539-.394 6.599-.569 9.08-.533 9.75.159 18.952 2.311 27.351 6.396a2.16 2.16 0 0 1-1.89 3.884c-7.827-3.808-16.417-5.814-25.532-5.962-2.309-.044-5.174.132-8.531.506C43.278 24.021 19.146 52.1 19.191 84.509c.004 2.338.145 4.705.418 7.036a2.159 2.159 0 0 1-2.147 2.411z" fill="#525D7D"/><path d="M54.904 146.406c-.315 0-.635-.07-.937-.215-13.387-6.461-24.57-17.416-31.49-30.847a2.16 2.16 0 0 1 3.839-1.977c6.493 12.604 16.98 22.88 29.528 28.936a2.16 2.16 0 0 1-.94 4.103z" fill="#525D7D"/><path d="M136.309 128.516c-1.484 0-2.967-.02-4.46-.079a2.159 2.159 0 0 1-2.061-1.919c-.373-3.346-.538-6.867-.538-11.418 0-1.961.03-3.923.06-5.896.029-1.972.06-3.954.06-5.955a2.158 2.158 0 1 1 4.318 0c0 2.023-.03 4.027-.06 6.02-.029 1.951-.059 3.891-.059 5.83 0 3.541.103 6.422.329 9.076 2.334.044 4.658.011 7.008-.022 1.581-.022 3.174-.045 4.789-.045a2.158 2.158 0 1 1 0 4.318c-1.595 0-3.167.023-4.728.044-1.561.025-3.11.046-4.658.046z" fill="#525D7D"/><path d="M129.404 98.327a2.158 2.158 0 1 1 0-4.318c.671 0 1.43-.152 2.232-.312.973-.195 1.981-.396 3.08-.396a2.158 2.158 0 1 1 0 4.318c-.672 0-1.43.152-2.233.312-.974.194-1.98.396-3.079.396z" fill="#525D7D"/><path d="M107.618 129.934a2.16 2.16 0 0 1-1.932-1.193c-.343-.686-.51-1.455-.51-2.35 0-.502.056-1.02.116-1.532.039-.335.084-.666.084-.983 0-.157-.014-.237-.022-.271a2.158 2.158 0 0 1 1.571-2.618 2.155 2.155 0 0 1 2.618 1.571c.102.408.152.839.152 1.318 0 .479-.053.981-.113 1.487-.041.344-.086.69-.086 1.028 0 .287.041.392.053.416a2.16 2.16 0 0 1-1.931 3.127z" fill="#525D7D"/><path d="M134.004 150.738a2.159 2.159 0 0 1-.352-4.289c.925-.155 2.013-.145 3.064-.091.355.018.708.037 1.065.037.635 0 1.102-.065 1.563-.219a2.16 2.16 0 1 1 1.365 4.097c-1.185.394-2.239.44-2.928.44-.432 0-.859-.021-1.288-.043-.75-.039-1.533-.062-2.132.038-.119.021-.239.03-.357.03z" fill="#525D7D"/><path d="M158.086 127.719a2.16 2.16 0 0 1-2.127-1.804c-.344-2.061-.738-4.727-.738-7.083a2.158 2.158 0 1 1 4.318 0c0 2.039.363 4.477.679 6.373a2.158 2.158 0 0 1-2.132 2.514z" fill="#525D7D"/><path d="M46.984 118.797a2.159 2.159 0 0 1-2.101-2.657c2.189-9.243 8.839-17.597 15.271-25.676 7.371-9.259 14.333-18.005 14.333-27.266 0-3.408-1.253-8.451-3.942-8.451-.908 0-1.697-.134-2.394-.252-.568-.096-1.059-.18-1.529-.18-4.536 0-17.651 5.694-17.651 16.56 0 .444.022.894.067 1.35a2.16 2.16 0 0 1-1.934 2.363 2.155 2.155 0 0 1-2.363-1.934 17.897 17.897 0 0 1-.089-1.779c0-13.562 15.593-20.879 21.969-20.879.834 0 1.588.128 2.252.241.58.098 1.127.191 1.671.191 5.675 0 8.26 6.619 8.26 12.769 0 10.77-7.765 20.523-15.273 29.955-5.332 6.698-10.823 13.595-13.46 20.736 8.519-1.348 17.266-1.474 25.565-1.474l5.957.007a2.158 2.158 0 1 1 0 4.318l-5.957-.007c-9.227 0-19.007.156-28.226 2.02a1.983 1.983 0 0 1-.426.045z" fill="#525D7D"/><path d="M85.736 88.071a2.156 2.156 0 0 1-2.091-2.696c3.588-13.967 7.886-39.812 8.301-43.128-.617-.867-.548-2.099.235-2.848.848-.809 2.152-.834 2.981-.003.74.739 1.131 1.655 1.131 2.646 0 1.481-4.061 25.874-7.637 41.031a639.493 639.493 0 0 1 20.744-4.071 2.16 2.16 0 0 1 .761 4.251 642.129 642.129 0 0 0-23.963 4.769 2.206 2.206 0 0 1-.462.049zm6.377-45.618h.014-.014z" fill="#525D7D"/><path d="M109.571 100.451a2.158 2.158 0 0 1-2.155-2.061 141.979 141.979 0 0 1-.142-6.423c0-11.866 1.394-23.867 2.742-35.473l.599-5.192c.134-1.185 1.204-2.049 2.389-1.901a2.158 2.158 0 0 1 1.901 2.389l-.599 5.202c-1.334 11.484-2.713 23.359-2.713 34.975 0 2.132.046 4.227.138 6.226a2.159 2.159 0 0 1-2.058 2.255c-.036.003-.069.003-.102.003z" fill="#525D7D"/><path d="M187.998 128.258c-.52 0-1.032-.188-1.434-.545-2.669-2.372-5.013-5.056-7.279-7.652-.979-1.121-1.957-2.242-2.961-3.337a2.157 2.157 0 0 1 1.178-3.578c1.428-.278 2.857-.547 4.285-.815 2.656-.498 5.402-1.013 8.089-1.59a2.158 2.158 0 0 1 2.56 2.586 141.74 141.74 0 0 0-2.296 13.047 2.16 2.16 0 0 1-2.142 1.884zm-5.939-11.584l.478.547c1.322 1.515 2.602 2.981 3.925 4.372.316-2.002.673-3.993 1.068-5.961-1.664.328-3.323.64-4.948.944l-.523.098z" fill="#525D7D"/><path d="M81.671 149.28a2.16 2.16 0 0 1-2.157-2.066c-.228-5.301-.529-11.622-1.028-18.32a2.16 2.16 0 0 1 3.676-1.691c1.913 1.904 3.784 3.889 5.594 5.807 2.193 2.327 4.462 4.734 6.786 6.971a2.16 2.16 0 0 1-.503 3.472c-.985.511-1.966 1.051-2.949 1.592-2.775 1.528-5.647 3.108-8.744 4.128a2.17 2.17 0 0 1-.675.107zm1.52-14.815a613.5 613.5 0 0 1 .503 9.545c1.763-.794 3.505-1.753 5.314-2.749l.441-.242c-1.654-1.672-3.263-3.379-4.835-5.046-.47-.499-.945-1.003-1.423-1.508z" fill="#525D7D"/></g></g></g></svg>